<?xml version="1.0" encoding="iso-8859-1"?>
<!-- Generator: Adobe Illustrator 19.0.0, SVG Export Plug-In . SVG Version: 6.00 Build 0)  -->
<svg version="1.1" id="Capa_1" xmlns="http://www.w3.org/2000/svg" xmlns:xlink="http://www.w3.org/1999/xlink" x="0px" y="0px"
	 viewBox="0 0 511.994 511.994" style="enable-background:new 0 0 511.994 511.994;" xml:space="preserve">
<g>
	<g>
		<path d="M48.912,383.747l-3.136,3.115c-1.024,1.024-1.835,2.24-2.347,3.584L0.762,497.112c-1.579,3.968-0.661,8.469,2.347,11.499
			c2.048,2.048,4.779,3.115,7.552,3.115c1.323,0,2.688-0.256,3.968-0.768l106.667-42.667c2.304-0.917,4.203-2.624,5.376-4.757
			c0.235-0.299,0.576-0.683,0.96-1.109L48.912,383.747z"/>
	</g>
</g>
<g>
	<g>
		<path d="M495.504,16.045c-21.035-21.035-57.707-21.035-78.741,0l-54.037,54.016l78.592,78.592
			c17.109-16.939,35.157-34.773,54.144-53.525c10.624-10.475,16.491-24.448,16.533-39.36
			C512.037,40.835,506.234,26.776,495.504,16.045z"/>
	</g>
</g>
<g>
	<g>
		<path d="M347.642,85.144L63.994,368.664l78.293,78.293c28.331-29.205,102.272-103.552,283.883-283.285L347.642,85.144z"/>
	</g>
</g>
<g>
</g>
<g>
</g>
<g>
</g>
<g>
</g>
<g>
</g>
<g>
</g>
<g>
</g>
<g>
</g>
<g>
</g>
<g>
</g>
<g>
</g>
<g>
</g>
<g>
</g>
<g>
</g>
<g>
</g>
</svg>
